<svg xmlns="http://www.w3.org/2000/svg" fill="#fff" aria-hidden="true" class="gamut-3o0h5k eol2zvm0" viewBox="0 0 24 24"><mask id="a"><path d="M18.5 0h-13A5.51 5.51 0 0 0 0 5.5v13A5.51 5.51 0 0 0 5.5 24h13a5.51 5.51 0 0 0 5.5-5.5v-13A5.51 5.51 0 0 0 18.5 0zm1 10.25a6.76 6.76 0 0 1-5-2.25v7.5a5 5 0 1 1-5-5 4.23 4.23 0 0 1 .5.05v2.5a2.73 2.73 0 0 0-.5-.05 2.5 2.5 0 1 0 2.5 2.5v-12h3l.15.6a4.48 4.48 0 0 0 4.35 3.4z"/></mask><g mask="url(#a)"><rect width="100%" height="100%" fill="currentColor"/></g></svg>